<?xml version="1.0" encoding="UTF-8" standalone="no"?>
<!DOCTYPE svg PUBLIC "-//W3C//DTD SVG 1.1//EN"
 "http://www.w3.org/Graphics/SVG/1.1/DTD/svg11.dtd">
<!-- Generated by graphviz version 2.40.1 (20161225.0304)
 -->
<!-- Pages: 1 -->
<svg width="1293pt" height="260pt"
 viewBox="0.00 0.00 1292.77 260.00" xmlns="http://www.w3.org/2000/svg" xmlns:xlink="http://www.w3.org/1999/xlink">
<g id="graph0" class="graph" transform="scale(1 1) rotate(0) translate(4 256)">
<polygon fill="#ffffff" stroke="transparent" points="-4,4 -4,-256 1288.7731,-256 1288.7731,4 -4,4"/>
<!-- 10.4.1.88 -->
<g id="node1" class="node">
<title>10.4.1.88</title>
<ellipse fill="none" stroke="#000000" cx="932.6013" cy="-90" rx="126.1772" ry="18"/>
<text text-anchor="middle" x="932.6013" y="-85.8" font-family="Times,serif" font-size="14.00" fill="#000000">reviews&#45;v3&#45;5c5cc7b6d&#45;95p7x</text>
</g>
<!-- 10.4.1.86 -->
<g id="node2" class="node">
<title>10.4.1.86</title>
<ellipse fill="none" stroke="#000000" cx="701.6013" cy="-18" rx="126.1984" ry="18"/>
<text text-anchor="middle" x="701.6013" y="-13.8" font-family="Times,serif" font-size="14.00" fill="#000000">ratings&#45;v1&#45;686ccfb5d8&#45;q4q2v</text>
</g>
<!-- 10.4.1.88&#45;&gt;10.4.1.86 -->
<g id="edge1" class="edge">
<title>10.4.1.88&#45;&gt;10.4.1.86</title>
<path fill="none" stroke="#000000" d="M879.8947,-73.572C845.5709,-62.8737 800.6173,-48.8622 764.4368,-37.5851"/>
<polygon fill="#000000" stroke="#000000" points="765.0693,-34.1162 754.4808,-34.4819 762.9863,-40.7991 765.0693,-34.1162"/>
</g>
<!-- 10.8.10.91 -->
<g id="node3" class="node">
<title>10.8.10.91</title>
<ellipse fill="none" stroke="#000000" cx="914.6013" cy="-18" rx="52.1572" ry="18"/>
<text text-anchor="middle" x="914.6013" y="-13.8" font-family="Times,serif" font-size="14.00" fill="#000000">10.8.10.91</text>
</g>
<!-- 10.4.1.88&#45;&gt;10.8.10.91 -->
<g id="edge2" class="edge">
<title>10.4.1.88&#45;&gt;10.8.10.91</title>
<path fill="none" stroke="#000000" d="M928.0591,-71.8314C926.1128,-64.0463 923.7945,-54.7729 921.6349,-46.1347"/>
<polygon fill="#000000" stroke="#000000" points="925.0255,-45.2658 919.2046,-36.4133 918.2345,-46.9636 925.0255,-45.2658"/>
</g>
<!-- 10.4.1.90 -->
<g id="node4" class="node">
<title>10.4.1.90</title>
<ellipse fill="none" stroke="#000000" cx="1153.6013" cy="-162" rx="131.3438" ry="18"/>
<text text-anchor="middle" x="1153.6013" y="-157.8" font-family="Times,serif" font-size="14.00" fill="#000000">otel&#45;collector&#45;d6cf57bbb&#45;vv5st</text>
</g>
<!-- 169.254.169.254 -->
<g id="node5" class="node">
<title>169.254.169.254</title>
<ellipse fill="none" stroke="#000000" cx="1153.6013" cy="-90" rx="76.4424" ry="18"/>
<text text-anchor="middle" x="1153.6013" y="-85.8" font-family="Times,serif" font-size="14.00" fill="#000000">169.254.169.254</text>
</g>
<!-- 10.4.1.90&#45;&gt;169.254.169.254 -->
<g id="edge3" class="edge">
<title>10.4.1.90&#45;&gt;169.254.169.254</title>
<path fill="none" stroke="#000000" d="M1153.6013,-143.8314C1153.6013,-136.131 1153.6013,-126.9743 1153.6013,-118.4166"/>
<polygon fill="#000000" stroke="#000000" points="1157.1014,-118.4132 1153.6013,-108.4133 1150.1014,-118.4133 1157.1014,-118.4132"/>
</g>
<!-- 10.4.2.54 -->
<g id="node6" class="node">
<title>10.4.2.54</title>
<ellipse fill="none" stroke="#000000" cx="531.6013" cy="-162" rx="141.2315" ry="18"/>
<text text-anchor="middle" x="531.6013" y="-157.8" font-family="Times,serif" font-size="14.00" fill="#000000">productpage&#45;v1&#45;564d4686f&#45;c247l</text>
</g>
<!-- 10.4.2.54&#45;&gt;10.4.1.88 -->
<g id="edge7" class="edge">
<title>10.4.2.54&#45;&gt;10.4.1.88</title>
<path fill="none" stroke="#000000" d="M613.7172,-147.256C680.7647,-135.2175 775.3289,-118.2384 844.0594,-105.8978"/>
<polygon fill="#000000" stroke="#000000" points="844.7822,-109.3241 854.0062,-104.1118 843.545,-102.4343 844.7822,-109.3241"/>
</g>
<!-- 10.4.1.85 -->
<g id="node7" class="node">
<title>10.4.1.85</title>
<ellipse fill="none" stroke="#000000" cx="122.6013" cy="-90" rx="122.7026" ry="18"/>
<text text-anchor="middle" x="122.6013" y="-85.8" font-family="Times,serif" font-size="14.00" fill="#000000">details&#45;v1&#45;5f4d584748&#45;dhj5f</text>
</g>
<!-- 10.4.2.54&#45;&gt;10.4.1.85 -->
<g id="edge4" class="edge">
<title>10.4.2.54&#45;&gt;10.4.1.85</title>
<path fill="none" stroke="#000000" d="M448.341,-147.3429C379.441,-135.2138 281.804,-118.0259 211.4158,-105.6348"/>
<polygon fill="#000000" stroke="#000000" points="211.6904,-102.1294 201.235,-103.8426 210.4767,-109.0234 211.6904,-102.1294"/>
</g>
<!-- 10.4.1.87 -->
<g id="node8" class="node">
<title>10.4.1.87</title>
<ellipse fill="none" stroke="#000000" cx="395.6013" cy="-90" rx="132.5848" ry="18"/>
<text text-anchor="middle" x="395.6013" y="-85.8" font-family="Times,serif" font-size="14.00" fill="#000000">reviews&#45;v1&#45;86896b7648&#45;h67q7</text>
</g>
<!-- 10.4.2.54&#45;&gt;10.4.1.87 -->
<g id="edge5" class="edge">
<title>10.4.2.54&#45;&gt;10.4.1.87</title>
<path fill="none" stroke="#000000" d="M498.3319,-144.3868C480.1383,-134.7549 457.4106,-122.7226 437.9613,-112.4259"/>
<polygon fill="#000000" stroke="#000000" points="439.474,-109.2666 428.9985,-107.6809 436.1988,-115.4531 439.474,-109.2666"/>
</g>
<!-- 10.4.0.74 -->
<g id="node9" class="node">
<title>10.4.0.74</title>
<ellipse fill="none" stroke="#000000" cx="667.6013" cy="-90" rx="120.9539" ry="18"/>
<text text-anchor="middle" x="667.6013" y="-85.8" font-family="Times,serif" font-size="14.00" fill="#000000">reviews&#45;v2&#45;b7dcd98fb&#45;dpjjz</text>
</g>
<!-- 10.4.2.54&#45;&gt;10.4.0.74 -->
<g id="edge6" class="edge">
<title>10.4.2.54&#45;&gt;10.4.0.74</title>
<path fill="none" stroke="#000000" d="M564.8706,-144.3868C583.2,-134.683 606.1314,-122.5428 625.6761,-112.1957"/>
<polygon fill="#000000" stroke="#000000" points="627.4751,-115.2035 634.6754,-107.4313 624.1999,-109.017 627.4751,-115.2035"/>
</g>
<!-- 10.4.0.74&#45;&gt;10.4.1.86 -->
<g id="edge10" class="edge">
<title>10.4.0.74&#45;&gt;10.4.1.86</title>
<path fill="none" stroke="#000000" d="M676.1809,-71.8314C679.9371,-63.8771 684.427,-54.369 688.581,-45.5723"/>
<polygon fill="#000000" stroke="#000000" points="691.8009,-46.9503 692.9061,-36.4133 685.4711,-43.9612 691.8009,-46.9503"/>
</g>
<!-- 10.4.0.74&#45;&gt;10.8.10.91 -->
<g id="edge11" class="edge">
<title>10.4.0.74&#45;&gt;10.8.10.91</title>
<path fill="none" stroke="#000000" d="M722.7254,-73.9314C765.283,-61.526 823.6586,-44.5096 864.8126,-32.5133"/>
<polygon fill="#000000" stroke="#000000" points="866.0017,-35.8124 874.6226,-29.6537 864.0427,-29.0921 866.0017,-35.8124"/>
</g>
<!-- 10.4.1.3 -->
<g id="node10" class="node">
<title>10.4.1.3</title>
<ellipse fill="none" stroke="#000000" cx="1153.6013" cy="-234" rx="74.1393" ry="18"/>
<text text-anchor="middle" x="1153.6013" y="-229.8" font-family="Times,serif" font-size="14.00" fill="#000000">collector&#45;647w5</text>
</g>
<!-- 10.4.1.3&#45;&gt;10.4.1.90 -->
<g id="edge8" class="edge">
<title>10.4.1.3&#45;&gt;10.4.1.90</title>
<path fill="none" stroke="#000000" d="M1153.6013,-215.8314C1153.6013,-208.131 1153.6013,-198.9743 1153.6013,-190.4166"/>
<polygon fill="#000000" stroke="#000000" points="1157.1014,-190.4132 1153.6013,-180.4133 1150.1014,-190.4133 1157.1014,-190.4132"/>
</g>
<!-- 10.4.2.36 -->
<g id="node11" class="node">
<title>10.4.2.36</title>
<ellipse fill="none" stroke="#000000" cx="531.6013" cy="-234" rx="132.5616" ry="18"/>
<text text-anchor="middle" x="531.6013" y="-229.8" font-family="Times,serif" font-size="14.00" fill="#000000">oha&#45;loadgen&#45;6fc59b8547&#45;cpkjh</text>
</g>
<!-- 10.4.2.36&#45;&gt;10.4.2.54 -->
<g id="edge9" class="edge">
<title>10.4.2.36&#45;&gt;10.4.2.54</title>
<path fill="none" stroke="#000000" d="M531.6013,-215.8314C531.6013,-208.131 531.6013,-198.9743 531.6013,-190.4166"/>
<polygon fill="#000000" stroke="#000000" points="535.1014,-190.4132 531.6013,-180.4133 528.1014,-190.4133 535.1014,-190.4132"/>
</g>
</g>
</svg>
