<?xml version="1.0" encoding="UTF-8" standalone="no"?>
<!DOCTYPE svg PUBLIC "-//W3C//DTD SVG 1.1//EN"
 "http://www.w3.org/Graphics/SVG/1.1/DTD/svg11.dtd">
<!-- Generated by graphviz version 2.40.1 (20161225.0304)
 -->
<!-- Pages: 1 -->
<svg width="1218pt" height="260pt"
 viewBox="0.00 0.00 1218.48 260.00" xmlns="http://www.w3.org/2000/svg" xmlns:xlink="http://www.w3.org/1999/xlink">
<g id="graph0" class="graph" transform="scale(1 1) rotate(0) translate(4 256)">
<polygon fill="#ffffff" stroke="transparent" points="-4,4 -4,-256 1214.4765,-256 1214.4765,4 -4,4"/>
<!-- 10.4.1.139 -->
<g id="node1" class="node">
<title>10.4.1.139</title>
<g id="a_node1"><a xlink:title="10.4.1.139">
<ellipse fill="none" stroke="#000000" cx="538.3578" cy="-162" rx="144.6822" ry="18"/>
<text text-anchor="middle" x="538.3578" y="-157.8" font-family="Times,serif" font-size="14.00" fill="#000000">productpage&#45;v1&#45;564d4686f&#45;2jvmx</text>
</a>
</g>
</g>
<!-- 10.4.2.73 -->
<g id="node2" class="node">
<title>10.4.2.73</title>
<g id="a_node2"><a xlink:title="10.4.2.73">
<ellipse fill="none" stroke="#000000" cx="126.3578" cy="-90" rx="126.2158" ry="18"/>
<text text-anchor="middle" x="126.3578" y="-85.8" font-family="Times,serif" font-size="14.00" fill="#000000">details&#45;v1&#45;5f4d584748&#45;4t97w</text>
</a>
</g>
</g>
<!-- 10.4.1.139&#45;&gt;10.4.2.73 -->
<g id="edge1" class="edge">
<title>10.4.1.139&#45;&gt;10.4.2.73</title>
<path fill="none" stroke="#000000" d="M453.9893,-147.256C384.8782,-135.1783 287.3111,-118.1278 216.6393,-105.7773"/>
<polygon fill="#000000" stroke="#000000" points="216.8673,-102.2642 206.414,-103.9904 215.6622,-109.1597 216.8673,-102.2642"/>
</g>
<!-- 10.4.1.137 -->
<g id="node3" class="node">
<title>10.4.1.137</title>
<g id="a_node3"><a xlink:title="10.4.1.137">
<ellipse fill="none" stroke="#000000" cx="402.3578" cy="-90" rx="131.9352" ry="18"/>
<text text-anchor="middle" x="402.3578" y="-85.8" font-family="Times,serif" font-size="14.00" fill="#000000">reviews&#45;v1&#45;86896b7648&#45;l2fnm</text>
</a>
</g>
</g>
<!-- 10.4.1.139&#45;&gt;10.4.1.137 -->
<g id="edge2" class="edge">
<title>10.4.1.139&#45;&gt;10.4.1.137</title>
<path fill="none" stroke="#000000" d="M505.0885,-144.3868C486.7591,-134.683 463.8276,-122.5428 444.283,-112.1957"/>
<polygon fill="#000000" stroke="#000000" points="445.7592,-109.017 435.2837,-107.4313 442.4839,-115.2035 445.7592,-109.017"/>
</g>
<!-- 10.4.0.99 -->
<g id="node4" class="node">
<title>10.4.0.99</title>
<g id="a_node4"><a xlink:title="10.4.0.99">
<ellipse fill="none" stroke="#000000" cx="674.3578" cy="-90" rx="122.0997" ry="18"/>
<text text-anchor="middle" x="674.3578" y="-85.8" font-family="Times,serif" font-size="14.00" fill="#000000">reviews&#45;v2&#45;b7dcd98fb&#45;f6j9b</text>
</a>
</g>
</g>
<!-- 10.4.1.139&#45;&gt;10.4.0.99 -->
<g id="edge3" class="edge">
<title>10.4.1.139&#45;&gt;10.4.0.99</title>
<path fill="none" stroke="#000000" d="M571.6272,-144.3868C589.9565,-134.683 612.888,-122.5428 632.4326,-112.1957"/>
<polygon fill="#000000" stroke="#000000" points="634.2317,-115.2035 641.4319,-107.4313 630.9564,-109.017 634.2317,-115.2035"/>
</g>
<!-- 10.4.1.138 -->
<g id="node5" class="node">
<title>10.4.1.138</title>
<g id="a_node5"><a xlink:title="10.4.1.138">
<ellipse fill="none" stroke="#000000" cx="944.3578" cy="-90" rx="129.6027" ry="18"/>
<text text-anchor="middle" x="944.3578" y="-85.8" font-family="Times,serif" font-size="14.00" fill="#000000">reviews&#45;v3&#45;5c5cc7b6d&#45;fmw6k</text>
</a>
</g>
</g>
<!-- 10.4.1.139&#45;&gt;10.4.1.138 -->
<g id="edge4" class="edge">
<title>10.4.1.139&#45;&gt;10.4.1.138</title>
<path fill="none" stroke="#000000" d="M621.4977,-147.256C689.2706,-135.2371 784.8127,-118.2937 854.3718,-105.9581"/>
<polygon fill="#000000" stroke="#000000" points="855.2045,-109.3651 864.4396,-104.1727 853.9821,-102.4727 855.2045,-109.3651"/>
</g>
<!-- 10.4.0.98 -->
<g id="node9" class="node">
<title>10.4.0.98</title>
<g id="a_node9"><a xlink:title="10.4.0.98">
<ellipse fill="none" stroke="#000000" cx="809.3578" cy="-18" rx="126.7568" ry="18"/>
<text text-anchor="middle" x="809.3578" y="-13.8" font-family="Times,serif" font-size="14.00" fill="#000000">ratings&#45;v1&#45;686ccfb5d8&#45;g2fbw</text>
</a>
</g>
</g>
<!-- 10.4.0.99&#45;&gt;10.4.0.98 -->
<g id="edge7" class="edge">
<title>10.4.0.99&#45;&gt;10.4.0.98</title>
<path fill="none" stroke="#000000" d="M707.0375,-72.5708C725.2263,-62.8702 748.0601,-50.6921 767.54,-40.3028"/>
<polygon fill="#000000" stroke="#000000" points="769.3346,-43.3124 776.5111,-35.5182 766.0405,-37.1359 769.3346,-43.3124"/>
</g>
<!-- 10.4.1.138&#45;&gt;10.4.0.98 -->
<g id="edge8" class="edge">
<title>10.4.1.138&#45;&gt;10.4.0.98</title>
<path fill="none" stroke="#000000" d="M911.6781,-72.5708C893.4893,-62.8702 870.6555,-50.6921 851.1756,-40.3028"/>
<polygon fill="#000000" stroke="#000000" points="852.6751,-37.1359 842.2045,-35.5182 849.381,-43.3124 852.6751,-37.1359"/>
</g>
<!-- 10.4.2.3 -->
<g id="node6" class="node">
<title>10.4.2.3</title>
<g id="a_node6"><a xlink:title="10.4.2.3">
<ellipse fill="none" stroke="#000000" cx="841.3578" cy="-234" rx="75.2751" ry="18"/>
<text text-anchor="middle" x="841.3578" y="-229.8" font-family="Times,serif" font-size="14.00" fill="#000000">collector&#45;wlmwr</text>
</a>
</g>
</g>
<!-- 10.4.2.95 -->
<g id="node7" class="node">
<title>10.4.2.95</title>
<g id="a_node7"><a xlink:title="10.4.2.95">
<ellipse fill="none" stroke="#000000" cx="841.3578" cy="-162" rx="140.0974" ry="18"/>
<text text-anchor="middle" x="841.3578" y="-157.8" font-family="Times,serif" font-size="14.00" fill="#000000">otel&#45;collector&#45;687dd7fd85&#45;j95bm</text>
</a>
</g>
</g>
<!-- 10.4.2.3&#45;&gt;10.4.2.95 -->
<g id="edge5" class="edge">
<title>10.4.2.3&#45;&gt;10.4.2.95</title>
<path fill="none" stroke="#000000" d="M841.3578,-215.8314C841.3578,-208.131 841.3578,-198.9743 841.3578,-190.4166"/>
<polygon fill="#000000" stroke="#000000" points="844.8579,-190.4132 841.3578,-180.4133 837.8579,-190.4133 844.8579,-190.4132"/>
</g>
<!-- 10.4.2.75 -->
<g id="node8" class="node">
<title>10.4.2.75</title>
<g id="a_node8"><a xlink:title="10.4.2.75">
<ellipse fill="none" stroke="#000000" cx="538.3578" cy="-234" rx="136.5531" ry="18"/>
<text text-anchor="middle" x="538.3578" y="-229.8" font-family="Times,serif" font-size="14.00" fill="#000000">oha&#45;loadgen&#45;84c68dbfbc&#45;dwhck</text>
</a>
</g>
</g>
<!-- 10.4.2.75&#45;&gt;10.4.1.139 -->
<g id="edge6" class="edge">
<title>10.4.2.75&#45;&gt;10.4.1.139</title>
<path fill="none" stroke="#000000" d="M538.3578,-215.8314C538.3578,-208.131 538.3578,-198.9743 538.3578,-190.4166"/>
<polygon fill="#000000" stroke="#000000" points="541.8579,-190.4132 538.3578,-180.4133 534.8579,-190.4133 541.8579,-190.4132"/>
</g>
<!-- 10.4.1.174 -->
<g id="node10" class="node">
<title>10.4.1.174</title>
<g id="a_node10"><a xlink:title="10.4.1.174">
<ellipse fill="none" stroke="#000000" cx="1102.3578" cy="-234" rx="108.2376" ry="18"/>
<text text-anchor="middle" x="1102.3578" y="-229.8" font-family="Times,serif" font-size="14.00" fill="#000000">client&#45;554d698b56&#45;5gf9f</text>
</a>
</g>
</g>
<!-- 10.4.1.175 -->
<g id="node11" class="node">
<title>10.4.1.175</title>
<g id="a_node11"><a xlink:title="10.4.1.175">
<ellipse fill="none" stroke="#000000" cx="1102.3578" cy="-162" rx="102.9705" ry="18"/>
<text text-anchor="middle" x="1102.3578" y="-157.8" font-family="Times,serif" font-size="14.00" fill="#000000">server&#45;68cd8cdf64&#45;lrqjt</text>
</a>
</g>
</g>
<!-- 10.4.1.174&#45;&gt;10.4.1.175 -->
<g id="edge9" class="edge">
<title>10.4.1.174&#45;&gt;10.4.1.175</title>
<path fill="none" stroke="#000000" d="M1102.3578,-215.8314C1102.3578,-208.131 1102.3578,-198.9743 1102.3578,-190.4166"/>
<polygon fill="#000000" stroke="#000000" points="1105.8579,-190.4132 1102.3578,-180.4133 1098.8579,-190.4133 1105.8579,-190.4132"/>
</g>
</g>
</svg>
