<?xml version="1.0" encoding="UTF-8" standalone="no"?>
<!DOCTYPE svg PUBLIC "-//W3C//DTD SVG 1.1//EN"
 "http://www.w3.org/Graphics/SVG/1.1/DTD/svg11.dtd">
<!-- Generated by graphviz version 2.40.1 (20161225.0304)
 -->
<!-- Pages: 1 -->
<svg width="3533pt" height="188pt"
 viewBox="0.00 0.00 3533.15 188.00" xmlns="http://www.w3.org/2000/svg" xmlns:xlink="http://www.w3.org/1999/xlink">
<g id="graph0" class="graph" transform="scale(1 1) rotate(0) translate(4 184)">
<polygon fill="#ffffff" stroke="transparent" points="-4,4 -4,-184 3529.1458,-184 3529.1458,4 -4,4"/>
<!-- 10.60.2.1 -->
<g id="node1" class="node">
<title>10.60.2.1</title>
<ellipse fill="none" stroke="#000000" cx="463.4794" cy="-162" rx="47.0014" ry="18"/>
<text text-anchor="middle" x="463.4794" y="-157.8" font-family="Times,serif" font-size="14.00" fill="#000000">10.60.2.1</text>
</g>
<!-- 10.60.2.10 -->
<g id="node2" class="node">
<title>10.60.2.10</title>
<ellipse fill="none" stroke="#000000" cx="69.4794" cy="-90" rx="69.4587" ry="18"/>
<text text-anchor="middle" x="69.4794" y="-85.8" font-family="Times,serif" font-size="14.00" fill="#000000">alertmanager&#45;0</text>
</g>
<!-- 10.60.2.1&#45;&gt;10.60.2.10 -->
<g id="edge1" class="edge">
<title>10.60.2.1&#45;&gt;10.60.2.10</title>
<path fill="none" stroke="#000000" d="M419.3679,-155.2834C358.1529,-145.7757 244.0659,-127.3806 147.4794,-108 142.029,-106.9064 136.3775,-105.715 130.721,-104.4832"/>
<polygon fill="#000000" stroke="#000000" points="131.0963,-100.9815 120.5758,-102.2347 129.5815,-107.8157 131.0963,-100.9815"/>
</g>
<!-- 10.60.2.2 -->
<g id="node3" class="node">
<title>10.60.2.2</title>
<ellipse fill="none" stroke="#000000" cx="233.4794" cy="-90" rx="77.0062" ry="18"/>
<text text-anchor="middle" x="233.4794" y="-85.8" font-family="Times,serif" font-size="14.00" fill="#000000">collector&#45;8m6nw</text>
</g>
<!-- 10.60.2.1&#45;&gt;10.60.2.2 -->
<g id="edge2" class="edge">
<title>10.60.2.1&#45;&gt;10.60.2.2</title>
<path fill="none" stroke="#000000" d="M426.7809,-150.5118C389.7175,-138.9093 331.9894,-120.8379 289.261,-107.4621"/>
<polygon fill="#000000" stroke="#000000" points="290.1549,-104.0745 279.5659,-104.4271 288.0636,-110.7548 290.1549,-104.0745"/>
</g>
<!-- 10.60.2.5 -->
<g id="node4" class="node">
<title>10.60.2.5</title>
<ellipse fill="none" stroke="#000000" cx="463.4794" cy="-90" rx="135.4306" ry="18"/>
<text text-anchor="middle" x="463.4794" y="-85.8" font-family="Times,serif" font-size="14.00" fill="#000000">gmp&#45;operator&#45;c56ddf69d&#45;h7gn2</text>
</g>
<!-- 10.60.2.1&#45;&gt;10.60.2.5 -->
<g id="edge3" class="edge">
<title>10.60.2.1&#45;&gt;10.60.2.5</title>
<path fill="none" stroke="#000000" d="M463.4794,-143.8314C463.4794,-136.131 463.4794,-126.9743 463.4794,-118.4166"/>
<polygon fill="#000000" stroke="#000000" points="466.9795,-118.4132 463.4794,-108.4133 459.9795,-118.4133 466.9795,-118.4132"/>
</g>
<!-- 10.60.2.9 -->
<g id="node5" class="node">
<title>10.60.2.9</title>
<ellipse fill="none" stroke="#000000" cx="754.4794" cy="-90" rx="137.1309" ry="18"/>
<text text-anchor="middle" x="754.4794" y="-85.8" font-family="Times,serif" font-size="14.00" fill="#000000">rule&#45;evaluator&#45;7bb69ddcf&#45;nbd5k</text>
</g>
<!-- 10.60.2.1&#45;&gt;10.60.2.9 -->
<g id="edge4" class="edge">
<title>10.60.2.1&#45;&gt;10.60.2.9</title>
<path fill="none" stroke="#000000" d="M503.3315,-152.1397C548.7059,-140.913 623.8209,-122.3279 680.1044,-108.4021"/>
<polygon fill="#000000" stroke="#000000" points="681.1616,-111.7461 690.0282,-105.9467 679.4803,-104.951 681.1616,-111.7461"/>
</g>
<!-- 10.60.2.8 -->
<g id="node6" class="node">
<title>10.60.2.8</title>
<ellipse fill="none" stroke="#000000" cx="1063.4794" cy="-90" rx="154.4616" ry="18"/>
<text text-anchor="middle" x="1063.4794" y="-85.8" font-family="Times,serif" font-size="14.00" fill="#000000">konnectivity&#45;agent&#45;7cc57cd685&#45;j2jcr</text>
</g>
<!-- 10.60.2.1&#45;&gt;10.60.2.8 -->
<g id="edge5" class="edge">
<title>10.60.2.1&#45;&gt;10.60.2.8</title>
<path fill="none" stroke="#000000" d="M508.5769,-156.5883C600.4126,-145.568 811.7256,-120.2104 945.4694,-104.1612"/>
<polygon fill="#000000" stroke="#000000" points="946.2491,-107.5928 955.7609,-102.9262 945.4151,-100.6427 946.2491,-107.5928"/>
</g>
<!-- 10.60.3.1 -->
<g id="node7" class="node">
<title>10.60.3.1</title>
<ellipse fill="none" stroke="#000000" cx="1412.4794" cy="-162" rx="47.0014" ry="18"/>
<text text-anchor="middle" x="1412.4794" y="-157.8" font-family="Times,serif" font-size="14.00" fill="#000000">10.60.3.1</text>
</g>
<!-- 10.60.3.2 -->
<g id="node8" class="node">
<title>10.60.3.2</title>
<ellipse fill="none" stroke="#000000" cx="1308.4794" cy="-90" rx="73.4939" ry="18"/>
<text text-anchor="middle" x="1308.4794" y="-85.8" font-family="Times,serif" font-size="14.00" fill="#000000">collector&#45;9m7r9</text>
</g>
<!-- 10.60.3.1&#45;&gt;10.60.3.2 -->
<g id="edge6" class="edge">
<title>10.60.3.1&#45;&gt;10.60.3.2</title>
<path fill="none" stroke="#000000" d="M1389.6561,-146.1993C1375.53,-136.4197 1357.1565,-123.6996 1341.4631,-112.8349"/>
<polygon fill="#000000" stroke="#000000" points="1343.2783,-109.8347 1333.0642,-107.0202 1339.2939,-115.5901 1343.2783,-109.8347"/>
</g>
<!-- 10.60.3.7 -->
<g id="node9" class="node">
<title>10.60.3.7</title>
<ellipse fill="none" stroke="#000000" cx="1516.4794" cy="-90" rx="117.447" ry="18"/>
<text text-anchor="middle" x="1516.4794" y="-85.8" font-family="Times,serif" font-size="14.00" fill="#000000">kube&#45;dns&#45;5bfd847c64&#45;fzlf5</text>
</g>
<!-- 10.60.3.1&#45;&gt;10.60.3.7 -->
<g id="edge7" class="edge">
<title>10.60.3.1&#45;&gt;10.60.3.7</title>
<path fill="none" stroke="#000000" d="M1435.3026,-146.1993C1449.126,-136.6292 1467.0167,-124.2434 1482.4832,-113.5358"/>
<polygon fill="#000000" stroke="#000000" points="1484.5554,-116.3582 1490.7851,-107.7884 1480.5709,-110.6028 1484.5554,-116.3582"/>
</g>
<!-- 10.60.4.7 -->
<g id="node10" class="node">
<title>10.60.4.7</title>
<ellipse fill="none" stroke="#000000" cx="2308.4794" cy="-162" rx="144.6629" ry="18"/>
<text text-anchor="middle" x="2308.4794" y="-157.8" font-family="Times,serif" font-size="14.00" fill="#000000">productpage&#45;v1&#45;564d4686f&#45;hbwfg</text>
</g>
<!-- 10.60.0.6 -->
<g id="node11" class="node">
<title>10.60.0.6</title>
<ellipse fill="none" stroke="#000000" cx="1777.4794" cy="-90" rx="125.6324" ry="18"/>
<text text-anchor="middle" x="1777.4794" y="-85.8" font-family="Times,serif" font-size="14.00" fill="#000000">details&#45;v1&#45;5f4d584748&#45;wclvv</text>
</g>
<!-- 10.60.4.7&#45;&gt;10.60.0.6 -->
<g id="edge8" class="edge">
<title>10.60.4.7&#45;&gt;10.60.0.6</title>
<path fill="none" stroke="#000000" d="M2210.467,-148.7102C2116.2594,-135.9363 1974.4997,-116.7146 1879.1005,-103.7791"/>
<polygon fill="#000000" stroke="#000000" points="1879.5302,-100.3055 1869.1506,-102.43 1878.5896,-107.242 1879.5302,-100.3055"/>
</g>
<!-- 10.60.0.7 -->
<g id="node12" class="node">
<title>10.60.0.7</title>
<ellipse fill="none" stroke="#000000" cx="2044.4794" cy="-90" rx="123.2437" ry="18"/>
<text text-anchor="middle" x="2044.4794" y="-85.8" font-family="Times,serif" font-size="14.00" fill="#000000">reviews&#45;v2&#45;b7dcd98fb&#45;89qtz</text>
</g>
<!-- 10.60.4.7&#45;&gt;10.60.0.7 -->
<g id="edge9" class="edge">
<title>10.60.4.7&#45;&gt;10.60.0.7</title>
<path fill="none" stroke="#000000" d="M2248.2433,-145.572C2207.9497,-134.5828 2154.8382,-120.0979 2112.9416,-108.6715"/>
<polygon fill="#000000" stroke="#000000" points="2113.6624,-105.2403 2103.0939,-105.9858 2111.8206,-111.9937 2113.6624,-105.2403"/>
</g>
<!-- 10.60.0.8 -->
<g id="node13" class="node">
<title>10.60.0.8</title>
<ellipse fill="none" stroke="#000000" cx="2308.4794" cy="-90" rx="122.6581" ry="18"/>
<text text-anchor="middle" x="2308.4794" y="-85.8" font-family="Times,serif" font-size="14.00" fill="#000000">reviews&#45;v3&#45;5c5cc7b6d&#45;vcs7j</text>
</g>
<!-- 10.60.4.7&#45;&gt;10.60.0.8 -->
<g id="edge10" class="edge">
<title>10.60.4.7&#45;&gt;10.60.0.8</title>
<path fill="none" stroke="#000000" d="M2308.4794,-143.8314C2308.4794,-136.131 2308.4794,-126.9743 2308.4794,-118.4166"/>
<polygon fill="#000000" stroke="#000000" points="2311.9795,-118.4132 2308.4794,-108.4133 2304.9795,-118.4133 2311.9795,-118.4132"/>
</g>
<!-- 10.60.4.6 -->
<g id="node14" class="node">
<title>10.60.4.6</title>
<ellipse fill="none" stroke="#000000" cx="2584.4794" cy="-90" rx="134.8683" ry="18"/>
<text text-anchor="middle" x="2584.4794" y="-85.8" font-family="Times,serif" font-size="14.00" fill="#000000">reviews&#45;v1&#45;86896b7648&#45;v8zdm</text>
</g>
<!-- 10.60.4.7&#45;&gt;10.60.4.6 -->
<g id="edge11" class="edge">
<title>10.60.4.7&#45;&gt;10.60.4.6</title>
<path fill="none" stroke="#000000" d="M2370.7633,-145.752C2413.0375,-134.724 2469.0415,-120.1142 2513.114,-108.617"/>
<polygon fill="#000000" stroke="#000000" points="2514.1052,-111.9757 2522.8979,-106.0647 2512.3382,-105.2024 2514.1052,-111.9757"/>
</g>
<!-- 10.60.4.5 -->
<g id="node15" class="node">
<title>10.60.4.5</title>
<ellipse fill="none" stroke="#000000" cx="2308.4794" cy="-18" rx="126.1984" ry="18"/>
<text text-anchor="middle" x="2308.4794" y="-13.8" font-family="Times,serif" font-size="14.00" fill="#000000">ratings&#45;v1&#45;686ccfb5d8&#45;96pbv</text>
</g>
<!-- 10.60.0.7&#45;&gt;10.60.4.5 -->
<g id="edge12" class="edge">
<title>10.60.0.7&#45;&gt;10.60.4.5</title>
<path fill="none" stroke="#000000" d="M2102.7421,-74.1102C2143.3135,-63.0452 2197.5685,-48.2484 2240.1768,-36.628"/>
<polygon fill="#000000" stroke="#000000" points="2241.183,-39.9815 2249.9097,-33.9735 2239.3411,-33.2281 2241.183,-39.9815"/>
</g>
<!-- 10.60.0.8&#45;&gt;10.60.4.5 -->
<g id="edge13" class="edge">
<title>10.60.0.8&#45;&gt;10.60.4.5</title>
<path fill="none" stroke="#000000" d="M2308.4794,-71.8314C2308.4794,-64.131 2308.4794,-54.9743 2308.4794,-46.4166"/>
<polygon fill="#000000" stroke="#000000" points="2311.9795,-46.4132 2308.4794,-36.4133 2304.9795,-46.4133 2311.9795,-46.4132"/>
</g>
<!-- 10.60.4.5&#45;&gt;10.60.4.7 -->
<g id="edge14" class="edge">
<title>10.60.4.5&#45;&gt;10.60.4.7</title>
<path fill="none" stroke="#000000" d="M2424.5081,-25.141C2541.8021,-33.5718 2708.5711,-49.3682 2728.4794,-72 2739.0471,-84.0134 2739.0471,-95.9866 2728.4794,-108 2709.8761,-129.1482 2563.0346,-144.3279 2448.1565,-153.1063"/>
<polygon fill="#000000" stroke="#000000" points="2447.5554,-149.6416 2437.8469,-153.8836 2448.0817,-156.6218 2447.5554,-149.6416"/>
</g>
<!-- 10.60.1.1 -->
<g id="node16" class="node">
<title>10.60.1.1</title>
<ellipse fill="none" stroke="#000000" cx="3097.4794" cy="-162" rx="47.0014" ry="18"/>
<text text-anchor="middle" x="3097.4794" y="-157.8" font-family="Times,serif" font-size="14.00" fill="#000000">10.60.1.1</text>
</g>
<!-- 10.60.1.3 -->
<g id="node17" class="node">
<title>10.60.1.3</title>
<ellipse fill="none" stroke="#000000" cx="2846.4794" cy="-90" rx="70.6258" ry="18"/>
<text text-anchor="middle" x="2846.4794" y="-85.8" font-family="Times,serif" font-size="14.00" fill="#000000">collector&#45;f7p6q</text>
</g>
<!-- 10.60.1.1&#45;&gt;10.60.1.3 -->
<g id="edge15" class="edge">
<title>10.60.1.1&#45;&gt;10.60.1.3</title>
<path fill="none" stroke="#000000" d="M3059.6304,-151.1429C3018.2047,-139.2599 2951.3301,-120.0767 2903.5354,-106.3667"/>
<polygon fill="#000000" stroke="#000000" points="2904.2196,-102.9219 2893.6422,-103.5288 2902.2895,-109.6505 2904.2196,-102.9219"/>
</g>
<!-- 10.60.1.4 -->
<g id="node18" class="node">
<title>10.60.1.4</title>
<ellipse fill="none" stroke="#000000" cx="3097.4794" cy="-90" rx="162.6354" ry="18"/>
<text text-anchor="middle" x="3097.4794" y="-85.8" font-family="Times,serif" font-size="14.00" fill="#000000">konnectivity&#45;agent&#45;7cc57cd685&#45;vkz4m</text>
</g>
<!-- 10.60.1.1&#45;&gt;10.60.1.4 -->
<g id="edge16" class="edge">
<title>10.60.1.1&#45;&gt;10.60.1.4</title>
<path fill="none" stroke="#000000" d="M3097.4794,-143.8314C3097.4794,-136.131 3097.4794,-126.9743 3097.4794,-118.4166"/>
<polygon fill="#000000" stroke="#000000" points="3100.9795,-118.4132 3097.4794,-108.4133 3093.9795,-118.4133 3100.9795,-118.4132"/>
</g>
<!-- 10.60.1.5 -->
<g id="node19" class="node">
<title>10.60.1.5</title>
<ellipse fill="none" stroke="#000000" cx="3401.4794" cy="-90" rx="123.8331" ry="18"/>
<text text-anchor="middle" x="3401.4794" y="-85.8" font-family="Times,serif" font-size="14.00" fill="#000000">kube&#45;dns&#45;5bfd847c64&#45;k7w9r</text>
</g>
<!-- 10.60.1.1&#45;&gt;10.60.1.5 -->
<g id="edge17" class="edge">
<title>10.60.1.1&#45;&gt;10.60.1.5</title>
<path fill="none" stroke="#000000" d="M3137.8482,-152.439C3185.8885,-141.061 3267.085,-121.8303 3326.701,-107.7107"/>
<polygon fill="#000000" stroke="#000000" points="3327.5232,-111.1128 3336.4474,-105.4023 3325.9099,-104.3013 3327.5232,-111.1128"/>
</g>
</g>
</svg>
