<?xml version="1.0" encoding="UTF-8" standalone="no"?>
<!DOCTYPE svg PUBLIC "-//W3C//DTD SVG 1.1//EN"
 "http://www.w3.org/Graphics/SVG/1.1/DTD/svg11.dtd">
<!-- Generated by graphviz version 2.40.1 (20161225.0304)
 -->
<!-- Pages: 1 -->
<svg width="1391pt" height="188pt"
 viewBox="0.00 0.00 1390.88 188.00" xmlns="http://www.w3.org/2000/svg" xmlns:xlink="http://www.w3.org/1999/xlink">
<g id="graph0" class="graph" transform="scale(1 1) rotate(0) translate(4 184)">
<polygon fill="#ffffff" stroke="transparent" points="-4,4 -4,-184 1386.8804,-184 1386.8804,4 -4,4"/>
<!-- 10.60.2.16 -->
<g id="node1" class="node">
<title>10.60.2.16</title>
<ellipse fill="none" stroke="#000000" cx="680.818" cy="-162" rx="140.6693" ry="18"/>
<text text-anchor="middle" x="680.818" y="-157.8" font-family="Times,serif" font-size="14.00" fill="#000000">productpage&#45;v1&#45;564d4686f&#45;qsv4j</text>
</g>
<!-- 10.60.2.13 -->
<g id="node2" class="node">
<title>10.60.2.13</title>
<ellipse fill="none" stroke="#000000" cx="125.818" cy="-90" rx="125.6362" ry="18"/>
<text text-anchor="middle" x="125.818" y="-85.8" font-family="Times,serif" font-size="14.00" fill="#000000">details&#45;v1&#45;5f4d584748&#45;v7pdc</text>
</g>
<!-- 10.60.2.16&#45;&gt;10.60.2.13 -->
<g id="edge1" class="edge">
<title>10.60.2.16&#45;&gt;10.60.2.13</title>
<path fill="none" stroke="#000000" d="M580.6647,-149.257C495.5622,-138.3969 370.1598,-122.3185 260.818,-108 250.1378,-106.6014 238.9838,-105.1306 227.8628,-103.6575"/>
<polygon fill="#000000" stroke="#000000" points="228.0469,-100.1514 217.6735,-102.3061 227.1265,-107.0906 228.0469,-100.1514"/>
</g>
<!-- 10.60.2.15 -->
<g id="node3" class="node">
<title>10.60.2.15</title>
<ellipse fill="none" stroke="#000000" cx="402.818" cy="-90" rx="132.5848" ry="18"/>
<text text-anchor="middle" x="402.818" y="-85.8" font-family="Times,serif" font-size="14.00" fill="#000000">reviews&#45;v1&#45;86896b7648&#45;5p88p</text>
</g>
<!-- 10.60.2.16&#45;&gt;10.60.2.15 -->
<g id="edge2" class="edge">
<title>10.60.2.16&#45;&gt;10.60.2.15</title>
<path fill="none" stroke="#000000" d="M618.4294,-145.8418C575.7154,-134.7792 518.965,-120.0812 474.4082,-108.5413"/>
<polygon fill="#000000" stroke="#000000" points="475.0774,-105.0992 464.5192,-105.9802 473.3223,-111.8757 475.0774,-105.0992"/>
</g>
<!-- 10.60.3.11 -->
<g id="node4" class="node">
<title>10.60.3.11</title>
<ellipse fill="none" stroke="#000000" cx="680.818" cy="-90" rx="127.3383" ry="18"/>
<text text-anchor="middle" x="680.818" y="-85.8" font-family="Times,serif" font-size="14.00" fill="#000000">reviews&#45;v2&#45;b7dcd98fb&#45;mxs96</text>
</g>
<!-- 10.60.2.16&#45;&gt;10.60.3.11 -->
<g id="edge3" class="edge">
<title>10.60.2.16&#45;&gt;10.60.3.11</title>
<path fill="none" stroke="#000000" d="M680.818,-143.8314C680.818,-136.131 680.818,-126.9743 680.818,-118.4166"/>
<polygon fill="#000000" stroke="#000000" points="684.3181,-118.4132 680.818,-108.4133 677.3181,-118.4133 684.3181,-118.4132"/>
</g>
<!-- 10.60.3.12 -->
<g id="node5" class="node">
<title>10.60.3.12</title>
<ellipse fill="none" stroke="#000000" cx="954.818" cy="-90" rx="128.4627" ry="18"/>
<text text-anchor="middle" x="954.818" y="-85.8" font-family="Times,serif" font-size="14.00" fill="#000000">reviews&#45;v3&#45;5c5cc7b6d&#45;wqghd</text>
</g>
<!-- 10.60.2.16&#45;&gt;10.60.3.12 -->
<g id="edge4" class="edge">
<title>10.60.2.16&#45;&gt;10.60.3.12</title>
<path fill="none" stroke="#000000" d="M742.6506,-145.752C784.7652,-134.6854 840.6056,-120.012 884.4283,-108.4966"/>
<polygon fill="#000000" stroke="#000000" points="885.3718,-111.8675 894.1539,-105.9409 883.5927,-105.0974 885.3718,-111.8675"/>
</g>
<!-- 10.60.2.14 -->
<g id="node6" class="node">
<title>10.60.2.14</title>
<ellipse fill="none" stroke="#000000" cx="954.818" cy="-18" rx="126.7568" ry="18"/>
<text text-anchor="middle" x="954.818" y="-13.8" font-family="Times,serif" font-size="14.00" fill="#000000">ratings&#45;v1&#45;686ccfb5d8&#45;p6rw6</text>
</g>
<!-- 10.60.3.11&#45;&gt;10.60.2.14 -->
<g id="edge5" class="edge">
<title>10.60.3.11&#45;&gt;10.60.2.14</title>
<path fill="none" stroke="#000000" d="M741.2876,-74.1102C783.631,-62.9834 840.3353,-48.083 884.668,-36.4336"/>
<polygon fill="#000000" stroke="#000000" points="885.7206,-39.7759 894.5028,-33.8493 883.9416,-33.0057 885.7206,-39.7759"/>
</g>
<!-- 10.60.3.12&#45;&gt;10.60.2.14 -->
<g id="edge6" class="edge">
<title>10.60.3.12&#45;&gt;10.60.2.14</title>
<path fill="none" stroke="#000000" d="M954.818,-71.8314C954.818,-64.131 954.818,-54.9743 954.818,-46.4166"/>
<polygon fill="#000000" stroke="#000000" points="958.3181,-46.4132 954.818,-36.4133 951.3181,-46.4133 958.3181,-46.4132"/>
</g>
<!-- 10.60.2.14&#45;&gt;10.60.2.16 -->
<g id="edge7" class="edge">
<title>10.60.2.14&#45;&gt;10.60.2.16</title>
<path fill="none" stroke="#000000" d="M1013.7976,-34.0334C1046.469,-44.2361 1082.3591,-58.1045 1091.818,-72 1100.8214,-85.2264 1102.3691,-95.9719 1091.818,-108 1073.5779,-128.7934 929.0248,-144.0869 816.4456,-152.9875"/>
<polygon fill="#000000" stroke="#000000" points="816.0413,-149.5083 806.344,-153.7759 816.586,-156.4871 816.0413,-149.5083"/>
</g>
<!-- 10.60.1.1 -->
<g id="node7" class="node">
<title>10.60.1.1</title>
<ellipse fill="none" stroke="#000000" cx="1260.818" cy="-162" rx="47.0014" ry="18"/>
<text text-anchor="middle" x="1260.818" y="-157.8" font-family="Times,serif" font-size="14.00" fill="#000000">10.60.1.1</text>
</g>
<!-- 10.60.1.9 -->
<g id="node8" class="node">
<title>10.60.1.9</title>
<ellipse fill="none" stroke="#000000" cx="1260.818" cy="-90" rx="122.1248" ry="18"/>
<text text-anchor="middle" x="1260.818" y="-85.8" font-family="Times,serif" font-size="14.00" fill="#000000">kube&#45;dns&#45;649bbf755c&#45;mtrq6</text>
</g>
<!-- 10.60.1.1&#45;&gt;10.60.1.9 -->
<g id="edge8" class="edge">
<title>10.60.1.1&#45;&gt;10.60.1.9</title>
<path fill="none" stroke="#000000" d="M1260.818,-143.8314C1260.818,-136.131 1260.818,-126.9743 1260.818,-118.4166"/>
<polygon fill="#000000" stroke="#000000" points="1264.3181,-118.4132 1260.818,-108.4133 1257.3181,-118.4133 1264.3181,-118.4132"/>
</g>
</g>
</svg>
